<svg width="20" height="16" viewBox="0 0 20 16" fill="none" xmlns="http://www.w3.org/2000/svg">
<path d="M12.6668 14.9999V13.4443C12.6668 12.6192 12.339 11.8279 11.7556 11.2444C11.1721 10.661 10.3808 10.3332 9.55564 10.3332H4.11114C3.28602 10.3332 2.49469 10.661 1.91123 11.2444C1.32778 11.8279 1 12.6192 1 13.4443V14.9999" stroke="#6B42EE" stroke-width="2" stroke-linecap="round" stroke-linejoin="round"/>
<path d="M6.83279 7.22228C8.55103 7.22228 9.94393 5.82938 9.94393 4.11114C9.94393 2.39291 8.55103 1 6.83279 1C5.11456 1 3.72165 2.39291 3.72165 4.11114C3.72165 5.82938 5.11456 7.22228 6.83279 7.22228Z" stroke="#6B42EE" stroke-width="2" stroke-linecap="round" stroke-linejoin="round"/>
<path d="M15.7785 4.88879V9.55551" stroke="#6B42EE" stroke-width="2" stroke-linecap="round" stroke-linejoin="round"/>
<path d="M18.1119 7.2226H13.4452" stroke="#6B42EE" stroke-width="2" stroke-linecap="round" stroke-linejoin="round"/>
</svg>
